<?xml version="1.0" encoding="UTF-8"?>
<svg width="342px" height="220px" viewBox="0 0 342 220" version="1.1" xmlns="http://www.w3.org/2000/svg" xmlns:xlink="http://www.w3.org/1999/xlink">
    <title>TB_H24-RGB</title>
    <g id="Products-2024" stroke="none" stroke-width="1" fill="none" fill-rule="evenodd">
        <g id="TB-Products-Harmony24" transform="translate(-549, -1014)" fill-rule="nonzero">
            <g id="02.-Benefits" transform="translate(138, 700)">
                <g id="TB_H24-RGB" transform="translate(411, 314)">
                    <path d="M0.0928086839,63.8649789 L0.0928086839,20.8860759 C0.0928086839,9.37552743 9.46648575,0 20.9747626,0 C32.4830393,0 41.8567164,9.37552743 41.8567164,20.8860759 L41.8567164,63.8649789 C41.8567164,75.3755274 32.4830393,84.7510549 20.9747626,84.7510549 C9.46648575,84.7510549 0.0928086839,75.3755274 0.0928086839,63.8649789 Z M37.587517,211.64557 C35.2672999,211.64557 33.4111262,213.50211 33.4111262,215.822785 C33.4111262,218.14346 35.2672999,220 37.587517,220 C39.9077341,220 41.7639077,218.14346 41.7639077,215.822785 C41.7639077,213.50211 39.9077341,211.64557 37.587517,211.64557 Z M20.9747626,199.113924 C18.6545455,199.113924 16.7983718,200.970464 16.7983718,203.291139 C16.7983718,205.611814 18.6545455,207.468354 20.9747626,207.468354 C23.2949796,207.468354 25.1511533,205.611814 25.1511533,203.291139 C25.1511533,200.970464 23.2949796,199.113924 20.9747626,199.113924 Z M142.368521,0 C130.860244,0 121.486567,9.37552743 121.486567,20.8860759 L121.486567,56.0675105 C121.486567,72.2194093 108.400543,85.2151899 92.2518318,85.2151899 L70.9058345,85.2151899 C31.8333786,85.2151899 0,115.56962 0,154.742616 L0,198.556962 C0,200.877637 1.85617368,202.734177 4.17639077,202.734177 C6.49660787,202.734177 8.35278155,200.877637 8.35278155,198.556962 L8.35278155,177.85654 C8.35278155,175.535865 10.2089552,173.679325 12.5291723,173.679325 C14.8493894,173.679325 16.7055631,175.535865 16.7055631,177.85654 L16.7055631,189.64557 C16.7055631,191.966245 18.5617368,193.822785 20.8819539,193.822785 C23.202171,193.822785 25.0583446,191.966245 25.0583446,189.64557 L25.0583446,170.151899 C25.0583446,167.831224 26.9145183,165.974684 29.2347354,165.974684 C31.5549525,165.974684 33.4111262,167.831224 33.4111262,170.151899 L33.4111262,202.084388 C33.4111262,204.405063 35.2672999,206.261603 37.587517,206.261603 C39.9077341,206.261603 41.7639077,204.405063 41.7639077,202.084388 L41.7639077,186.396624 C41.7639077,186.396624 41.7639077,154.742616 41.7639077,154.742616 C41.7639077,138.590717 54.8499322,126.987342 70.9986431,126.987342 L92.3446404,126.987342 C102.739213,126.987342 112.669742,124.759494 121.579376,120.675105 L121.579376,190.945148 C121.579376,202.455696 130.953053,211.831224 142.46133,211.831224 C153.969607,211.831224 163.343284,202.455696 163.343284,190.945148 L163.343284,20.8860759 C163.343284,9.37552743 153.969607,0 142.46133,0 L142.368521,0 Z" id="Shape" fill="#8AC9B7"/>
                    <g id="Group" transform="translate(146.6377, 49.384)">
                        <g transform="translate(0, 5.371)" fill="#FFFFFF">
                            <path d="M3.52672999,97.5741009 L7.14626866,79.6584891 L42.8776119,54.2238899 C51.0447761,48.4686157 55.1283582,44.2914005 56.8917232,41.1352824 C45.197829,38.9074343 35.9169607,44.0129195 27.6569878,49.8610208 L16.7983718,33.523468 L21.2531886,10.966506 C28.3066486,6.69646379 40.8358209,1.03401653 56.056445,4.09730767 C66.358209,6.13950176 74.0613297,11.616295 78.8873813,18.8568013 L87.6113976,31.9454089 C93.4583446,40.7639743 95.3145183,48.6542697 93.7367707,56.6373921 C91.2309362,69.3546916 79.5370421,77.337814 68.4,85.5065904 L65.9869742,87.2703035 L74.9894166,89.0340165 L86.590502,106.392666 L82.2284939,128.392666 L15.2206242,115.025578 L3.61953867,97.6669279 L3.52672999,97.5741009 Z" id="Path"/>
                            <path d="M84.6415197,132.105746 L13.0860244,117.810388 L0,98.2238899 L4.08358209,77.709122 L40.8358209,51.5319068 C44.919403,48.6542697 48.0748982,46.0551136 50.3951153,43.8272655 C42.4135685,44.1057465 35.5457259,48.0044807 29.3275441,52.4601769 L26.6360923,54.409544 L13.1788331,34.173257 L18.190502,8.92431189 L19.3970149,8.18169586 C27.6569878,3.16903763 40.8358209,-2.21492862 56.5204885,0.941189528 C67.0078697,3.07621062 75.8246947,8.73865788 81.3932157,17.0930883 L90.117232,30.1816959 C96.3354138,39.5572233 98.4700136,48.3757887 96.7066486,57.2871811 C94.2008141,69.8188267 83.9918589,77.894776 73.690095,85.5065904 L76.7527815,86.1563794 L89.838806,105.742877 L84.548711,132.2914 L84.6415197,132.105746 Z M17.0767978,112.055114 L79.6298507,124.493932 L83.1565807,106.949628 L73.0404342,91.8188267 L58.0982361,88.8483625 L68.1215739,81.6078562 C78.6089552,73.9960418 88.4466757,66.7555355 90.5812754,55.894776 C92.0662144,48.6542697 90.2100407,41.5994174 84.9199457,33.616295 L76.1959294,20.5276874 C71.5554953,13.5656621 64.3164179,8.92431189 55.4067843,7.16059881 C42.5063772,4.56144269 31.4621438,8.64583088 24.1302578,12.9158731 L20.1394844,32.780852 L28.4922659,45.3124975 C36.3810041,40.1141853 45.8474898,35.8441431 57.4485753,37.9791642 L61.9033921,38.8146072 L59.6759837,42.7133414 C57.4485753,46.7049026 52.5297151,51.3462528 44.7337856,56.8230461 L10.1161465,81.5150292 L7.05345997,96.9243119 L17.1696065,112.055114 L17.0767978,112.055114 Z" id="Shape"/>
                        </g>
                        <g transform="translate(78.8874, 0)" fill="#FFFFFF">
                            <polygon id="Path" points="60.6968792 106.28692 60.2328358 103.780591 23.9446404 111.206751 6.49660787 99.6033755 3.34111262 84.1012658 34.6176391 9.18987342 62.831479 3.43459916 80.2795115 14.9451477 89.838806 62.0084388 91.0453189 61.7299578 108.493351 73.2405063 112.576934 93.3839662 96.8922659 96.5400844 100.233379 113.248945 78.1449118 117.797468"/>
                            <path d="M77.495251,121.232068 L57.81981,108.236287 L57.81981,107.586498 C57.7270014,107.586498 23.2949796,114.64135 23.2949796,114.64135 L3.61953867,101.64557 L0,83.8227848 L32.297422,6.40506329 L63.4811398,0 L83.1565807,12.9957806 L92.5302578,58.8523207 L111.463229,71.3839662 L116.474898,95.9831224 L100.790231,99.2320675 L104.224152,115.940928 L77.5880597,121.324895 L77.495251,121.232068 Z M63.5739484,104.244726 L78.7945726,114.270042 L96.4282225,110.649789 L92.9943012,93.9409283 L108.678969,90.6919831 L105.523474,75.0970464 L90.3028494,65.07173 L87.2401628,65.721519 L77.3096336,16.8016878 L62.0890095,6.77637131 L36.8450475,11.8818565 L6.58941655,84.2869198 L9.28086839,97.5611814 L24.5014925,107.586498 L62.6458616,99.7890295 L63.5739484,104.151899 L63.5739484,104.244726 Z" id="Shape"/>
                        </g>
                        <g transform="translate(3.7123, 3.6203)">
                            <polygon id="Path" fill="#8AC9B7" points="69.4208955 114.827004 73.1332429 96.2616034 82.1356852 109.721519 78.4233379 128.28692"/>
                            <polygon id="Path" fill="#8AC9B7" points="153.412754 61.2658228 164.642605 59.0379747 155.547354 12.0675105 141.254817 3.80590717"/>
                            <polygon id="Path" fill="#8AC9B7" points="169.9327 62.2869198 183.482768 71.1983122 186.916689 87.907173 173.366621 78.9029536"/>
                            <polygon id="Path" fill="#8AC9B7" points="161.023066 98.8607595 157.403528 81.8734177 171.32483 91.7130802 174.573134 107.772152"/>
                            <path d="M81.021981,32.0253165 C81.021981,32.0253165 93.7367707,47.0632911 89.1891452,60.6160338 C89.1891452,60.6160338 88.8179104,69.2489451 70.2561737,83.0801688 L61.068114,89.6708861 L40.3717775,85.6793249 C40.3717775,85.6793249 55.9636364,77.7890295 72.4835821,61.6371308 C72.4835821,61.6371308 83.6206242,50.6835443 81.021981,32.1181435 L81.021981,32.0253165 Z" id="Path" fill="#8AC9B7"/>
                            <path d="M67.1006784,111.670886 L70.6274084,93.8481013 L33.3183175,86.4219409 C42.3207598,80.7594937 50.0238806,76.1181435 55.4995929,72.1265823 C70.3489824,61.2658228 75.45346,55.8818565 77.8664858,43.721519 C81.3004071,26.5485232 70.9986431,12.8101266 53.4578019,9.28270042 C39.629308,6.4978903 28.3994573,11.1392405 21.438806,15.2236287 L17.8192673,33.2320675 C25.4295794,28.4050633 34.5248304,24.5063291 45.3834464,26.6413502 C54.3858887,28.4050633 59.583175,34.5316456 58.1910448,41.8649789 C56.9845319,47.7130802 49.9310719,53.3755274 42.3207598,59.1308017 L7.33188602,83.9156118 L4.26919946,99.1392405 L67.1006784,111.670886 L67.1006784,111.670886 Z" id="Path" fill="#FA9EB1"/>
                            <path d="M157.589145,97.8396624 L154.155224,81.1308017 L169.839891,77.8818565 L166.591588,62.0084388 L150.90692,65.257384 L138.377748,3.71308017 L113.226594,8.8185654 L82.6925373,81.8734177 L85.2911805,94.8691983 L136.057531,84.4725738 L139.491452,101.459916 L157.403528,97.8396624 L157.589145,97.8396624 Z M124.270828,26.0843882 L133.087653,69.5274262 L102.646404,75.7468354 L124.178019,26.0843882 L124.270828,26.0843882 Z" id="Shape" fill="#FA9EB1"/>
                            <path d="M0,99.4177215 L3.61953867,81.5021097 L39.350882,56.0675105 C47.5180461,50.3122363 51.6016282,46.1350211 53.3649932,42.978903 C41.6710991,40.7510549 32.3902307,45.8565401 24.1302578,51.7046414 L13.2716418,35.3670886 L17.7264586,12.8101266 C24.7799186,8.54008439 37.3090909,2.87763713 52.5297151,5.94092827 C62.831479,7.98312236 70.5345997,13.4599156 75.3606513,20.7004219 L84.0846676,33.7890295 C89.9316147,42.6075949 91.7877883,50.4978903 90.2100407,58.4810127 C87.7042062,71.1983122 76.0103121,79.1814346 64.87327,87.350211 L62.4602442,89.1139241 L71.4626866,90.8776371 L83.063772,108.236287 L78.7017639,130.236287 L11.6938942,116.869198 L0.0928086839,99.5105485 L0,99.4177215 Z M65.6157395,110.649789 L69.1424695,92.8270042 L31.8333786,85.4008439 C40.8358209,79.7383966 48.5389417,75.0970464 54.014654,71.1054852 C68.8640434,60.2447257 73.968521,54.8607595 76.3815468,42.7004219 C79.8154681,25.5274262 69.5137042,11.7890295 51.972863,8.26160338 C34.4320217,4.73417722 26.9145183,10.1181435 19.953867,14.2025316 L16.3343284,32.2109705 C23.9446404,27.3839662 33.0398915,23.4852321 43.8985075,25.6202532 C52.9009498,27.3839662 58.0982361,33.5105485 56.7061058,40.8438819 C55.4995929,46.6919831 48.446133,52.3544304 40.8358209,58.1097046 L5.84694708,82.8945148 L2.78426052,98.1181435 L65.6157395,110.649789 L65.6157395,110.649789 Z M17.5408412,34.7172996 L19.8610583,35.1814346 L20.3251018,32.7679325 C18.9329715,33.6033755 17.5408412,34.4388186 16.2415197,35.3670886 L17.1696065,36.6666667 L17.5408412,34.7172996 L17.5408412,34.7172996 Z M19.4898236,37.6877637 L21.8100407,38.1518987 L22.2740841,35.7383966 L19.953867,35.2742616 L19.4898236,37.5949367 L17.5408412,37.2236287 L19.1185889,39.6371308 L19.4898236,37.6877637 Z M22.6453189,33.0464135 L22.9237449,31.4683544 L20.6035278,32.6751055 L22.6453189,33.0464135 L22.6453189,33.0464135 Z M21.438806,40.6582278 L23.7590231,41.1223629 L24.2230665,38.8016878 L21.9028494,38.3375527 L21.438806,40.6582278 L19.4898236,40.2869198 L21.0675712,42.6075949 L21.438806,40.6582278 Z M24.6871099,36.0168776 L25.0583446,33.9746835 L23.0165536,33.6033755 L22.6453189,35.6455696 L24.6871099,36.0168776 Z M23.3877883,43.628692 L25.7080054,44.092827 L26.1720488,41.7721519 L23.7590231,41.3080169 L23.2949796,43.628692 L21.3459973,43.257384 L22.9237449,45.6708861 L23.2949796,43.721519 L23.3877883,43.628692 Z M25.5223881,30.9113924 L25.7080054,30.1687764 L24.4086839,30.7257384 L25.5223881,30.9113924 L25.5223881,30.9113924 Z M26.6360923,38.9873418 L27.1001357,36.8523207 L24.965536,36.3881857 L24.5014925,38.5232068 L26.6360923,38.9873418 Z M27.4713704,33.8818565 L27.8426052,32.1181435 L26.0792402,31.7468354 L25.7080054,33.5105485 L27.4713704,33.8818565 Z M25.1511533,47.8059072 L25.4295794,46.5991561 L26.7289009,46.8776371 L27.8426052,46.1350211 L28.1210312,44.649789 L25.8008141,44.185654 L25.3367707,46.5063291 L23.3877883,46.1350211 L24.6871099,48.0843882 L25.0583446,47.8059072 L25.1511533,47.8059072 Z M14.663772,104.151899 L14.663772,103.50211 C14.7565807,103.50211 14.1069199,103.409283 14.1069199,103.409283 L14.1069199,104.059072 C14.0141113,104.059072 14.663772,104.151899 14.663772,104.151899 Z M28.5850746,41.8649789 L28.9563094,39.8227848 L26.9145183,39.4514768 L26.5432836,41.4936709 L28.5850746,41.8649789 Z M29.4203528,36.8523207 L29.7915875,35.0886076 L28.0282225,34.7172996 L27.6569878,36.4810127 L29.4203528,36.8523207 Z M30.3484396,31.6540084 L30.6268657,30.1687764 L29.1419267,29.8902954 L28.8635007,31.3755274 L30.3484396,31.6540084 Z M16.6127544,107.122363 L16.6127544,106.472574 C16.7055631,106.472574 16.0559023,106.379747 16.0559023,106.379747 L16.0559023,107.029536 C15.9630936,107.029536 16.6127544,107.122363 16.6127544,107.122363 Z M30.2556309,44.835443 L30.6268657,44.649789 L30.9981004,42.8860759 L28.9563094,42.5147679 L28.5850746,44.556962 L30.3484396,44.92827 L30.2556309,44.835443 Z M31.3693351,39.8227848 L31.7405699,38.0590717 L29.9772049,37.6877637 L29.6059701,39.4514768 L31.3693351,39.8227848 Z M32.2046133,34.6244726 L32.4830393,33.1392405 L30.9981004,32.8607595 L30.7196744,34.3459916 L32.2046133,34.6244726 Z M33.1327001,29.6118143 L33.4111262,28.4050633 L32.2046133,28.1265823 L31.9261872,29.3333333 L33.1327001,29.6118143 Z M19.7682497,105.172996 L19.953867,104.337553 L19.0257802,104.151899 L18.8401628,104.987342 L19.7682497,105.172996 Z M18.6545455,110.185654 L18.6545455,109.535865 C18.7473541,109.535865 18.0976934,109.443038 18.0976934,109.443038 L18.0976934,110.092827 C18.0048847,110.092827 18.6545455,110.185654 18.6545455,110.185654 Z M33.3183175,42.7004219 L33.6895522,40.9367089 L31.9261872,40.5654008 L31.5549525,42.3291139 L33.3183175,42.7004219 Z M34.2464043,37.6877637 L34.5248304,36.2025316 L33.0398915,35.9240506 L32.7614654,37.4092827 L34.2464043,37.6877637 Z M35.0816825,32.4894515 L35.3601085,31.2827004 L34.1535957,31.0042194 L33.8751696,32.2109705 L35.0816825,32.4894515 Z M21.717232,108.14346 L21.9028494,107.308017 L21.0675712,107.122363 L20.8819539,107.957806 L21.717232,108.14346 Z M20.6963365,113.248945 L20.6963365,112.599156 C20.7891452,112.599156 20.1394844,112.506329 20.1394844,112.506329 L20.1394844,113.156118 C20.0466757,113.156118 20.6963365,113.248945 20.6963365,113.248945 Z M36.1953867,40.5654008 L36.4738128,39.0801688 L34.9888738,38.8016878 L34.7104478,40.2869198 L36.1953867,40.5654008 Z M37.1234735,35.4599156 L37.4018996,34.2531646 L36.1953867,33.9746835 L35.9169607,35.1814346 L37.1234735,35.4599156 Z M37.865943,30.4472574 L38.0515604,29.5189873 L37.1234735,29.3333333 L36.9378562,30.2616034 L37.865943,30.4472574 Z M24.965536,106.379747 L25.1511533,105.265823 L24.0374491,105.080169 L23.8518318,106.194093 L24.965536,106.379747 Z M23.7590231,111.206751 L23.9446404,110.371308 L23.0165536,110.185654 L22.8309362,111.021097 L23.7590231,111.206751 Z M22.6453189,116.219409 L22.6453189,115.56962 C22.7381275,115.56962 22.0884668,115.476793 22.0884668,115.476793 L22.0884668,116.126582 C21.9956581,116.126582 22.6453189,116.219409 22.6453189,116.219409 Z M38.9796472,38.4303797 L39.2580733,37.2236287 L38.0515604,36.9451477 L37.7731343,38.1518987 L38.9796472,38.4303797 Z M39.9077341,33.3248945 L40.0933514,32.3966245 L39.1652646,32.2109705 L38.9796472,33.1392405 L39.9077341,33.3248945 Z M40.7430122,28.4978903 L40.7430122,27.8481013 C40.8358209,27.8481013 40.2789688,27.7552743 40.2789688,27.7552743 L40.2789688,28.4050633 C40.1861601,28.4050633 40.7430122,28.4978903 40.7430122,28.4978903 Z M26.9145183,109.350211 L27.1001357,108.236287 L25.9864315,108.050633 L25.8008141,109.164557 L26.9145183,109.350211 Z M25.8008141,114.270042 L25.9864315,113.434599 L25.1511533,113.248945 L24.965536,114.084388 L25.8008141,114.270042 Z M41.2070556,40.6582278 L41.2070556,40.2869198 C41.2070556,40.2869198 40.0005427,40.0084388 40.0005427,40.0084388 L39.8149254,40.9367089 L41.2070556,40.6582278 L41.2070556,40.6582278 Z M41.8567164,36.2953586 L42.0423338,35.3670886 L41.1142469,35.1814346 L40.9286296,36.1097046 L41.8567164,36.2953586 Z M42.7848033,31.1898734 L42.7848033,30.5400844 C42.8776119,30.5400844 42.3207598,30.4472574 42.3207598,30.4472574 L42.3207598,31.0970464 C42.2279512,31.0970464 42.7848033,31.1898734 42.7848033,31.1898734 Z M30.0700136,107.493671 L30.3484396,106.194093 L28.9563094,105.915612 L28.6778833,107.21519 L30.0700136,107.493671 Z M28.9563094,112.413502 L29.1419267,111.299578 L28.0282225,111.113924 L27.8426052,112.227848 L28.9563094,112.413502 Z M27.8426052,117.333333 L28.0282225,116.49789 L27.1001357,116.312236 L26.9145183,117.147679 L27.8426052,117.333333 Z M43.8056988,39.1729958 L43.9913161,38.2447257 L43.0632293,38.0590717 L42.8776119,38.9873418 L43.8056988,39.1729958 Z M44.7337856,34.1603376 L44.7337856,33.5105485 C44.8265943,33.5105485 44.2697422,33.4177215 44.2697422,33.4177215 L44.2697422,34.0675105 C44.1769335,34.0675105 44.7337856,34.1603376 44.7337856,34.1603376 Z M32.0189959,110.556962 L32.297422,109.164557 L30.9052917,108.886076 L30.6268657,110.278481 L32.0189959,110.556962 Z M30.9052917,115.383966 L31.0909091,114.270042 L29.9772049,114.084388 L29.7915875,115.198312 L30.9052917,115.383966 Z M46.682768,37.1308017 L46.682768,36.4810127 C46.7755767,36.4810127 46.2187246,36.3881857 46.2187246,36.3881857 L46.2187246,37.0379747 C46.1259159,37.0379747 46.682768,37.1308017 46.682768,37.1308017 Z M35.1744912,108.607595 L35.4529172,107.21519 L33.8751696,106.936709 L33.5967436,108.329114 L35.1744912,108.607595 Z M34.060787,113.620253 L34.339213,112.227848 L32.9470828,111.949367 L32.6686567,113.341772 L34.060787,113.620253 Z M32.9470828,118.447257 L33.1327001,117.333333 L32.0189959,117.147679 L31.8333786,118.261603 L32.9470828,118.447257 Z M48.6317503,40.0084388 L48.6317503,39.3586498 C48.724559,39.3586498 48.1677069,39.2658228 48.1677069,39.2658228 L48.1677069,39.9156118 C48.0748982,39.9156118 48.6317503,40.0084388 48.6317503,40.0084388 Z M37.2162822,111.670886 L37.587517,110 L35.9169607,109.628692 L35.5457259,111.299578 L37.2162822,111.670886 Z M36.102578,116.590717 L36.3810041,115.198312 L34.9888738,114.919831 L34.7104478,116.312236 L36.102578,116.590717 Z M43.7128901,85.0295359 L44.0841248,82.9873418 L42.0423338,82.6160338 L41.6710991,84.6582278 L43.7128901,85.0295359 Z M40.2789688,109.814346 L40.5573948,108.329114 L38.7012212,107.957806 L38.4227951,109.443038 L40.2789688,109.814346 Z M39.1652646,114.64135 L39.4436906,113.063291 L37.865943,112.78481 L37.587517,114.362869 L39.1652646,114.64135 Z M38.1443691,119.468354 L38.4227951,118.261603 L37.0306649,117.983122 L36.7522388,119.189873 L38.1443691,119.468354 Z M46.682768,83.1729958 L47.1468114,81.0379747 L45.1050204,80.6666667 L44.6409769,82.8016878 L46.682768,83.1729958 Z M42.3207598,112.877637 L42.6919946,111.021097 L40.8358209,110.649789 L40.4645862,112.506329 L42.3207598,112.877637 Z M41.2070556,117.704641 L41.5782904,116.033755 L39.9077341,115.662447 L39.5364993,117.333333 L41.2070556,117.704641 Z M49.6526459,81.2236287 L50.1166893,78.9957806 L47.9820896,78.5316456 L47.5180461,80.7594937 L49.6526459,81.2236287 Z M48.724559,86.0506329 L49.0957938,84.0084388 L46.961194,83.5443038 L46.5899593,85.5864979 L48.724559,86.0506329 L48.724559,86.0506329 Z M45.2906377,110.742616 L45.5690638,109.257384 L43.7128901,108.886076 L43.434464,110.371308 L45.2906377,110.742616 Z M44.3625509,115.848101 L44.7337856,113.991561 L42.8776119,113.620253 L42.5063772,115.476793 L44.3625509,115.848101 Z M43.2488467,120.489451 L43.5272727,119.097046 L41.9495251,118.818565 L41.6710991,120.21097 L43.2488467,120.489451 Z M52.7153324,79.2742616 L53.1793758,76.9535865 L50.8591588,76.4894515 L50.3951153,78.8101266 L52.7153324,79.2742616 Z M51.6944369,84.1012658 L52.1584803,81.9662447 L49.9310719,81.5021097 L49.4670285,83.6371308 L51.6944369,84.1012658 Z M47.3324288,113.805907 L47.7036635,111.949367 L45.8474898,111.578059 L45.4762551,113.434599 L47.3324288,113.805907 Z M46.4043419,118.911392 L46.7755767,117.054852 L44.919403,116.683544 L44.5481682,118.540084 L46.4043419,118.911392 Z M55.6852103,77.4177215 L56.1492537,75.0970464 L53.8290366,74.6329114 L53.3649932,76.9535865 L55.6852103,77.4177215 Z M54.6643148,82.2447257 L55.1283582,79.9240506 L52.8081411,79.4599156 L52.3440977,81.7805907 L54.6643148,82.2447257 Z M53.6434193,87.07173 L54.1074627,84.8438819 L51.8800543,84.3797468 L51.4160109,86.6075949 L53.6434193,87.07173 Z M50.3023066,111.763713 L50.5807327,110.278481 L48.724559,109.907173 L48.446133,111.392405 L50.3023066,111.763713 Z M49.2814111,116.869198 L49.6526459,115.012658 L47.7964722,114.64135 L47.4252374,116.49789 L49.2814111,116.869198 Z M48.446133,121.510549 L48.724559,120.025316 L46.8683853,119.654008 L46.5899593,121.139241 L48.446133,121.510549 Z M64.594844,84.2869198 L65.0588874,81.8734177 L67.3791045,82.3375527 L67.6575305,82.1518987 L68.1215739,79.9240506 L70.0705563,80.2953586 L70.7202171,79.8312236 L71.0914518,77.9746835 L72.6691995,78.2531646 L73.8757123,77.2320675 L74.1541384,76.0253165 L75.1750339,76.2109705 L76.8455902,74.7257384 L77.0312076,73.8902954 L77.6808684,73.8902954 C79.3514247,72.4978903 80.8363636,70.9198312 82.2284939,69.2489451 L81.1147897,69.0632911 L81.3932157,67.5780591 L82.785346,67.8565401 L82.5997286,68.7848101 C83.1565807,68.1350211 83.6206242,67.3924051 84.1774763,66.649789 L83.9918589,66.649789 C83.9918589,66.649789 84.1774763,65.535865 84.1774763,65.535865 L84.827137,65.535865 C86.2192673,63.2151899 87.3329715,60.6160338 87.8898236,57.8312236 C89.3747626,50.4050633 87.5185889,43.350211 82.0428765,35.0886076 L79.258616,30.9113924 C79.9082768,35.8312236 79.8154681,39.4514768 78.98019,43.257384 C77.9592944,48.3628692 76.4743555,52.3544304 74.0613297,56.0675105 L74.8037992,56.2531646 L74.5253731,57.7383966 L73.1332429,57.4599156 L71.8339213,59.0379747 L71.6483039,59.8734177 L71.2770692,59.8734177 C69.8849389,61.2658228 68.4,62.8438819 66.636635,64.4219409 L68.4,64.7932489 L67.9359566,67.021097 L65.7085482,66.556962 L65.9869742,64.978903 L64.2236092,66.464135 L65.4301221,66.742616 L64.9660787,69.0632911 L62.6458616,68.5991561 L62.831479,67.6708861 L61.7177748,68.5991561 L62.4602442,68.7848101 L61.9962008,71.1054852 L59.6759837,70.6413502 L59.6759837,70.0843882 C59.7687924,70.0843882 59.1191316,70.6413502 59.1191316,70.6413502 L59.583175,70.6413502 C59.583175,70.7341772 59.1191316,73.1476793 59.1191316,73.1476793 L56.7061058,72.6835443 L56.2420624,75.0970464 L58.6550882,75.5611814 L59.1191316,73.1476793 L61.6249661,73.6118143 L61.1609227,76.1181435 L58.7478969,75.6540084 L58.2838535,78.0675105 L60.6968792,78.5316456 L61.1609227,76.1181435 L63.5739484,76.5822785 L63.109905,79.0886076 L60.6968792,78.6244726 L60.2328358,81.0379747 L62.6458616,81.5021097 L63.109905,79.0886076 L65.6157395,79.5527426 L65.1516961,81.9662447 L62.7386703,81.5021097 L62.2746269,83.9156118 L64.6876526,84.3797468 L64.594844,84.2869198 Z M57.6341927,80.2953586 L58.0982361,77.9746835 L55.778019,77.5105485 L55.3139756,79.8312236 L57.6341927,80.2953586 Z M56.6132972,85.2151899 L57.0773406,82.8945148 L54.7571235,82.4303797 L54.2930801,84.7510549 L56.6132972,85.2151899 Z M52.3440977,114.827004 L52.7153324,112.970464 L50.8591588,112.599156 L50.487924,114.455696 L52.3440977,114.827004 Z M51.3232022,119.932489 L51.6944369,118.075949 L49.8382632,117.704641 L49.4670285,119.561181 L51.3232022,119.932489 Z M59.583175,83.2658228 L60.0472185,80.9451477 L57.7270014,80.4810127 L57.2629579,82.8016878 L59.583175,83.2658228 Z M58.6550882,88.185654 L59.1191316,85.8649789 L56.7989145,85.4008439 L56.3348711,87.721519 L58.6550882,88.185654 Z M55.3139756,112.78481 L55.5924016,111.299578 L53.736228,110.92827 L53.4578019,112.413502 L55.3139756,112.78481 Z M54.3858887,117.797468 L54.7571235,115.940928 L52.9009498,115.56962 L52.5297151,117.42616 L54.3858887,117.797468 Z M53.4578019,122.531646 L53.736228,121.046414 L51.8800543,120.675105 L51.6016282,122.160338 L53.4578019,122.531646 Z M62.0890095,71.1054852 L64.5020353,71.5696203 L64.0379919,73.9831224 L61.6249661,73.5189873 L62.0890095,71.1054852 Z M61.6249661,86.1434599 L62.0890095,83.8227848 L59.7687924,83.3586498 L59.304749,85.6793249 L61.6249661,86.1434599 Z M57.3557666,115.848101 L57.7270014,113.991561 L55.8708277,113.620253 L55.4995929,115.476793 L57.3557666,115.848101 Z M56.4276798,120.860759 L56.7989145,119.004219 L54.9427408,118.632911 L54.5715061,120.489451 L56.4276798,120.860759 Z M65.0588874,69.1561181 L67.3791045,69.6202532 L66.9150611,71.9409283 L64.594844,71.4767932 L65.0588874,69.1561181 Z M64.1308005,74.0759494 L66.4510176,74.5400844 L65.9869742,76.8607595 L63.6667571,76.3966245 L64.1308005,74.0759494 Z M60.3256445,113.805907 L60.6040706,112.320675 L58.7478969,111.949367 L58.4694708,113.434599 L60.3256445,113.805907 Z M59.304749,118.818565 L59.6759837,116.962025 L57.81981,116.590717 L57.4485753,118.447257 L59.304749,118.818565 Z M58.4694708,123.552743 L58.7478969,122.067511 L56.8917232,121.696203 L56.6132972,123.181435 L58.4694708,123.552743 Z M67.1006784,72.1265823 L69.4208955,72.5907173 L68.9568521,74.9113924 L66.636635,74.4472574 L67.1006784,72.1265823 Z M66.0797829,77.0464135 L68.4,77.5105485 L67.9359566,79.8312236 L65.6157395,79.3670886 L66.0797829,77.0464135 Z M69.0496608,62.3797468 L71.1842605,62.8438819 L70.8130258,64.8860759 L68.6784261,64.4219409 L69.0496608,62.3797468 Z M68.1215739,67.2067511 L70.3489824,67.6708861 L69.8849389,69.8987342 L67.6575305,69.4345992 L68.1215739,67.2067511 Z M62.3674355,116.869198 L62.7386703,115.012658 L60.8824966,114.64135 L60.5112619,116.49789 L62.3674355,116.869198 Z M61.34654,121.881857 L61.7177748,120.025316 L59.8616011,119.654008 L59.4903664,121.510549 L61.34654,121.881857 Z M70.0705563,70.1772152 L72.2979647,70.6413502 L71.8339213,72.8691983 L69.6065129,72.4050633 L70.0705563,70.1772152 Z M69.0496608,75.0970464 L71.3698779,75.5611814 L70.9058345,77.8818565 L68.5856174,77.4177215 L69.0496608,75.0970464 Z M71.0914518,65.350211 L73.2260516,65.814346 L72.7620081,67.9493671 L70.6274084,67.4852321 L71.0914518,65.350211 Z M72.205156,60.6160338 L73.968521,60.9873418 L73.5972863,62.7510549 L71.8339213,62.3797468 L72.205156,60.6160338 Z M65.3373134,114.734177 L65.6157395,113.248945 L63.7595658,112.877637 L63.4811398,114.362869 L65.3373134,114.734177 Z M64.4092266,119.839662 L64.7804613,117.983122 L62.9242877,117.611814 L62.5530529,119.468354 L64.4092266,119.839662 Z M63.4811398,124.57384 L63.7595658,123.088608 L61.9033921,122.7173 L61.6249661,124.202532 L63.4811398,124.57384 Z M72.0195387,73.1476793 L74.2469471,73.6118143 L73.7829037,75.9324895 L71.5554953,75.4683544 L72.0195387,73.1476793 Z M73.0404342,68.3206751 L75.0822252,68.6919831 L74.6181818,70.8270042 L72.5763908,70.4556962 L73.0404342,68.3206751 Z M74.1541384,63.5864979 L75.9175034,63.9578059 L75.5462687,65.721519 L73.7829037,65.350211 L74.1541384,63.5864979 Z M75.2678426,58.8523207 L76.6599729,59.1308017 L76.3815468,60.6160338 L74.9894166,60.3375527 L75.2678426,58.8523207 Z M76.3815468,54.1181435 L77.495251,54.3037975 L77.216825,55.5105485 L76.1031208,55.3248945 L76.3815468,54.1181435 Z M77.495251,49.3839662 L78.3305292,49.5696203 L78.1449118,50.3122363 L77.3096336,50.1265823 L77.495251,49.3839662 Z M78.7945726,44.556962 L79.4442334,44.556962 C79.4442334,44.649789 79.3514247,45.2995781 79.3514247,45.2995781 L78.7017639,45.2995781 C78.7017639,45.2067511 78.7945726,44.556962 78.7945726,44.556962 Z M67.3791045,117.797468 L67.7503392,115.940928 L65.8941655,115.56962 L65.5229308,117.42616 L67.3791045,117.797468 Z M66.4510176,122.902954 L66.8222524,121.046414 L64.9660787,120.675105 L64.594844,122.531646 L66.4510176,122.902954 Z M74.9894166,71.2911392 L77.1240163,71.7552743 L76.7527815,73.7974684 L74.6181818,73.3333333 L74.9894166,71.2911392 Z M76.1031208,66.556962 L77.8664858,66.92827 L77.495251,68.6919831 L75.731886,68.3206751 L76.1031208,66.556962 Z M77.216825,61.8227848 L78.7017639,62.1012658 L78.4233379,63.5864979 L76.9383989,63.3080169 L77.216825,61.8227848 Z M78.4233379,57.0886076 L79.5370421,57.2742616 L79.3514247,58.3881857 L78.2377205,58.2025316 L78.4233379,57.0886076 Z M79.4442334,52.3544304 L80.1867028,52.5400844 L80.0010855,53.3755274 L79.258616,53.1898734 L79.4442334,52.3544304 Z M80.6507463,47.5274262 L81.3004071,47.5274262 C81.3004071,47.6202532 81.2075984,48.2700422 81.2075984,48.2700422 L80.5579376,48.2700422 C80.5579376,48.1772152 80.6507463,47.5274262 80.6507463,47.5274262 Z M80.3723202,108.607595 L71.3698779,95.1476793 L67.6575305,113.71308 L76.6599729,127.172996 L80.3723202,108.607595 Z M69.3280868,120.860759 L69.6993216,119.004219 L67.8431479,118.632911 L67.4719132,120.489451 L69.3280868,120.860759 Z M68.4928087,125.50211 L68.7712347,124.016878 L66.9150611,123.64557 L66.636635,125.130802 L68.4928087,125.50211 Z M78.0521031,69.4345992 L79.8154681,69.8059072 L79.4442334,71.5696203 L77.6808684,71.1983122 L78.0521031,69.4345992 Z M79.258616,64.7932489 L80.743555,65.07173 L80.4651289,66.464135 L78.98019,66.185654 L79.258616,64.7932489 Z M80.2795115,60.0590717 L81.3932157,60.2447257 L81.2075984,61.3586498 L80.0938942,61.1729958 L80.2795115,60.0590717 Z M81.4860244,55.3248945 L82.2284939,55.5105485 L82.0428765,56.2531646 L81.3004071,56.0675105 L81.4860244,55.3248945 Z M82.5997286,50.4978903 L83.2493894,50.4978903 C83.2493894,50.5907173 83.1565807,51.2405063 83.1565807,51.2405063 L82.5069199,51.2405063 C82.5069199,51.1476793 82.5997286,50.4978903 82.5997286,50.4978903 Z M71.3698779,123.924051 L71.7411126,122.067511 L69.8849389,121.696203 L69.5137042,123.552743 L71.3698779,123.924051 Z M82.3213026,62.9367089 L83.4350068,63.1223629 L83.1565807,64.3291139 L82.0428765,64.1434599 L82.3213026,62.9367089 Z M83.4350068,58.2025316 L84.2702849,58.3881857 L84.0846676,59.2236287 L83.2493894,59.0379747 L83.4350068,58.2025316 Z M84.6415197,53.4683544 L85.1983718,53.4683544 C85.1983718,53.5611814 85.1055631,54.1181435 85.1055631,54.1181435 L84.548711,54.1181435 C84.548711,54.0253165 84.6415197,53.4683544 84.6415197,53.4683544 Z M73.4116689,126.523207 L73.690095,125.037975 L71.8339213,124.666667 L71.5554953,126.151899 L73.4116689,126.523207 Z M85.3839891,61.1729958 L86.1264586,61.3586498 L85.9408412,62.1012658 L85.1983718,61.9156118 L85.3839891,61.1729958 Z M86.590502,56.4388186 L87.1473541,56.4388186 C87.1473541,56.5316456 87.0545455,57.0886076 87.0545455,57.0886076 L86.4976934,57.0886076 C86.4976934,56.9957806 86.590502,56.4388186 86.590502,56.4388186 Z" id="Shape" fill="#191D3A"/>
                            <path d="M136.057531,102.759494 L135.593487,100.253165 L99.3052917,107.679325 L81.8572592,96.1687764 L78.7017639,80.6666667 L109.97829,5.75527426 L138.19213,0 L155.640163,11.5105485 L165.199457,58.5738397 L166.40597,58.2953586 L183.854003,69.8059072 L187.937585,89.8565401 L172.252917,93.1054852 L175.686839,109.814346 L153.505563,114.362869 L136.057531,102.852321 L136.057531,102.759494 Z M156.104206,96.8185654 L152.670285,80.1097046 L168.354953,76.8607595 L165.106649,60.9873418 L149.421981,64.2362869 L136.892809,2.69198312 L111.741655,7.79746835 L81.2075984,80.8523207 L83.8062415,93.8481013 L134.572592,83.4514768 L138.006513,100.438819 L155.918589,96.8185654 L156.104206,96.8185654 Z M89.9316147,96.8185654 L89.6531886,95.3333333 L87.7970149,95.7046414 L88.075441,97.1898734 L89.9316147,96.8185654 Z M92.9014925,98.7679325 L92.5302578,96.9113924 L90.6740841,97.2827004 L91.0453189,99.1392405 L92.9014925,98.7679325 Z M94.8504749,95.7974684 L94.5720488,94.3122363 L92.7158752,94.6835443 L92.9943012,96.1687764 L94.8504749,95.7974684 Z M95.9641791,100.810127 L95.5929444,98.9535865 L93.7367707,99.3248945 L94.1080054,101.181435 L95.9641791,100.810127 L95.9641791,100.810127 Z M97.8203528,97.8396624 L97.449118,95.9831224 L95.5929444,96.3544304 L95.9641791,98.2109705 L97.8203528,97.8396624 Z M98.934057,102.852321 L98.5628223,100.995781 L96.7066486,101.367089 L97.0778833,103.223629 L98.934057,102.852321 Z M100.883039,99.7890295 L100.511805,97.9324895 L98.6556309,98.3037975 L99.0268657,100.160338 L100.883039,99.7890295 Z M99.9549525,94.7763713 L99.6765265,93.2911392 L97.8203528,93.6624473 L98.0987788,95.1476793 L99.9549525,94.7763713 Z M101.903935,104.523207 L101.625509,103.037975 L99.7693351,103.409283 L100.047761,104.894515 L101.903935,104.523207 Z M103.945726,101.831224 L103.574491,99.9746835 L101.718318,100.345992 L102.089552,102.202532 L103.945726,101.831224 L103.945726,101.831224 Z M102.92483,96.7257384 L102.553596,94.8691983 L100.697422,95.2405063 L101.068657,97.0970464 L102.92483,96.7257384 Z M106.915604,103.50211 L106.637178,102.016878 L104.781004,102.388186 L105.05943,103.873418 L106.915604,103.50211 Z M105.987517,98.7679325 L105.616282,96.9113924 L103.760109,97.2827004 L104.131343,99.1392405 L105.987517,98.7679325 Z M104.873813,93.6624473 L104.595387,92.2700422 L103.017639,92.5485232 L103.296065,93.9409283 L104.873813,93.6624473 Z M122.785889,24.9704641 L131.602714,68.4135021 L101.161465,74.6329114 L122.69308,24.9704641 L122.785889,24.9704641 Z M109.050204,100.810127 L108.678969,98.9535865 L106.822795,99.3248945 L107.19403,101.181435 L109.050204,100.810127 L109.050204,100.810127 Z M107.936499,95.7046414 L107.565265,94.0337553 L105.894708,94.4050633 L106.265943,96.0759494 L107.936499,95.7046414 Z M112.020081,102.481013 L111.741655,100.995781 L109.885482,101.367089 L110.163908,102.852321 L112.020081,102.481013 Z M110.906377,97.6540084 L110.627951,96.0759494 L109.050204,96.3544304 L109.32863,97.9324895 L110.906377,97.6540084 Z M109.699864,92.5485232 L109.421438,91.3417722 L108.029308,91.6202532 L108.307734,92.8270042 L109.699864,92.5485232 Z M113.969064,99.6962025 L113.597829,98.0253165 L111.927273,98.3966245 L112.298507,100.067511 L113.969064,99.6962025 Z M112.762551,94.4978903 L112.484125,93.1054852 L111.091995,93.3839662 L111.370421,94.7763713 L112.762551,94.4978903 Z M110.163908,70.2700422 L109.699864,67.9493671 L112.11289,67.4852321 L111.648847,65.164557 L109.235821,65.628692 L109.699864,67.9493671 L107.286839,68.4135021 L107.101221,67.4852321 L106.637178,68.6919831 L107.19403,68.6919831 C107.19403,68.5991561 107.658073,70.7341772 107.658073,70.7341772 L110.163908,70.1772152 L110.163908,70.2700422 Z M109.143012,65.628692 L108.771777,63.7721519 L107.843691,65.907173 L109.143012,65.628692 Z M116.938942,101.459916 L116.660516,100.067511 L115.082768,100.345992 L115.361194,101.738397 L116.938942,101.459916 Z M115.732429,96.5400844 L115.454003,95.1476793 L114.061872,95.4261603 L114.340299,96.8185654 L115.732429,96.5400844 Z M114.618725,91.3417722 L114.433107,90.2278481 L113.319403,90.4135021 L113.50502,91.5274262 L114.618725,91.3417722 Z M110.999186,62.5654008 L110.535142,60.2447257 L110.256716,60.2447257 C110.256716,60.2447257 109.143012,62.9367089 109.143012,62.9367089 L110.999186,62.5654008 Z M118.795115,98.5822785 L118.516689,97.1898734 L117.124559,97.4683544 L117.402985,98.8607595 L118.795115,98.5822785 Z M117.681411,93.3839662 L117.495794,92.2700422 L116.38209,92.4556962 L116.567707,93.5696203 L117.681411,93.3839662 Z M114.989959,69.2489451 L114.525916,67.021097 L112.11289,67.4852321 L112.576934,69.7130802 L114.989959,69.2489451 Z M113.969064,64.4219409 L113.50502,62.1940928 L111.277612,62.6582278 L111.741655,64.8860759 L113.969064,64.4219409 Z M112.85536,59.5021097 L112.391316,57.4599156 L111.463229,57.6455696 L110.72076,59.4092827 L110.72076,59.9662447 C110.813569,59.9662447 112.85536,59.5949367 112.85536,59.5949367 L112.85536,59.5021097 Z M121.857802,100.438819 L121.579376,99.2320675 L120.187246,99.5105485 L120.465672,100.7173 L121.857802,100.438819 Z M120.651289,95.3333333 L120.465672,94.2194093 L119.351967,94.4050633 L119.537585,95.5189873 L120.651289,95.3333333 Z M119.537585,90.2278481 L119.351967,89.3924051 L118.423881,89.5780591 L118.609498,90.4135021 L119.537585,90.2278481 Z M116.938942,66.464135 L116.474898,64.2362869 L114.24749,64.7004219 L114.711533,66.92827 L116.938942,66.464135 Z M115.825237,61.4514768 L115.454003,59.4092827 L113.412212,59.7805907 L113.783446,61.8227848 L115.825237,61.4514768 Z M114.711533,56.4388186 L114.340299,54.6751055 L112.576934,55.0464135 L112.576934,55.3248945 C112.484125,55.3248945 112.762551,56.9029536 112.762551,56.9029536 L114.618725,56.5316456 L114.711533,56.4388186 Z M123.713976,97.3755274 L123.528358,96.2616034 L122.414654,96.4472574 L122.600271,97.5611814 L123.713976,97.3755274 Z M122.507463,92.2700422 L122.321845,91.4345992 L121.486567,91.6202532 L121.672185,92.4556962 L122.507463,92.2700422 Z M119.816011,68.3206751 L119.351967,66.278481 L117.124559,66.742616 L117.588602,68.7848101 L119.816011,68.3206751 Z M118.795115,63.4008439 L118.423881,61.3586498 L116.38209,61.8227848 L116.753324,63.8649789 L118.795115,63.4008439 Z M117.588602,58.3881857 L117.217368,56.6244726 L115.454003,56.9957806 L115.825237,58.7594937 L117.588602,58.3881857 Z M116.567707,53.3755274 L116.289281,51.7974684 L114.618725,52.1687764 L114.897151,53.7468354 L116.567707,53.3755274 Z M126.683853,99.4177215 L126.498236,98.3037975 L125.384532,98.4894515 L125.570149,99.6033755 L126.683853,99.4177215 Z M125.570149,94.2194093 L125.384532,93.3839662 L124.456445,93.5696203 L124.642062,94.4050633 L125.570149,94.2194093 Z M124.456445,89.1139241 L124.270828,88.464135 L123.621167,88.649789 L123.806784,89.2995781 L124.456445,89.1139241 Z M121.672185,65.443038 L121.208141,63.4008439 L119.16635,63.7721519 L119.630393,65.814346 L121.672185,65.443038 Z M120.651289,60.4303797 L120.280054,58.5738397 L118.516689,58.9451477 L118.887924,60.8016878 L120.651289,60.4303797 Z M119.537585,55.3248945 L119.259159,53.7468354 L117.588602,54.1181435 L117.867028,55.6962025 L119.537585,55.3248945 Z M118.331072,50.4050633 L118.052646,48.9198312 L116.567707,49.1983122 L116.846133,50.6835443 L118.331072,50.4050633 Z M117.310176,45.3924051 L117.124559,44.556962 L116.753324,45.4852321 L117.310176,45.4852321 L117.310176,45.3924051 Z M128.540027,96.2616034 L128.35441,95.4261603 L127.519132,95.6118143 L127.704749,96.4472574 L128.540027,96.2616034 Z M127.426323,91.1561181 L127.240706,90.5063291 L126.591045,90.6919831 L126.776662,91.3417722 L127.426323,91.1561181 Z M128.725645,66.464135 L127.240706,59.3164557 L122.785889,67.6708861 L128.725645,66.464135 L128.725645,66.464135 Z M123.528358,62.2869198 L123.157123,60.5232068 L121.393758,60.8945148 L121.764993,62.6582278 L123.528358,62.2869198 Z M122.414654,57.3670886 L122.043419,55.6962025 L120.465672,55.9746835 L120.836906,57.6455696 L122.414654,57.3670886 Z M121.30095,52.3544304 L121.022524,50.8691983 L119.537585,51.1476793 L119.816011,52.6329114 L121.30095,52.3544304 Z M120.187246,47.3417722 L119.90882,46.1350211 L118.702307,46.4135021 L118.980733,47.6202532 L120.187246,47.3417722 Z M119.073541,42.4219409 L118.887924,41.4008439 L118.423881,41.4008439 C118.423881,41.4936709 117.959837,42.5147679 117.959837,42.5147679 L117.959837,42.5147679 C117.959837,42.6075949 119.073541,42.5147679 119.073541,42.5147679 L119.073541,42.4219409 Z M131.602714,98.2109705 L131.417096,97.3755274 L130.489009,97.5611814 L130.674627,98.3966245 L131.602714,98.2109705 Z M130.489009,93.1054852 L130.303392,92.4556962 L129.653731,92.6413502 L129.839349,93.2911392 L130.489009,93.1054852 Z M124.82768,59.4092827 L125.198915,58.5738397 L125.013297,57.7383966 L123.342741,58.1097046 L123.621167,59.6877637 L124.734871,59.5021097 L124.82768,59.4092827 Z M124.270828,54.3037975 L123.992402,52.8185654 L122.600271,53.0970464 L122.878697,54.5822785 L124.270828,54.3037975 Z M123.157123,49.2911392 L122.878697,48.0843882 L121.672185,48.3628692 L121.950611,49.5696203 L123.157123,49.2911392 Z M122.043419,44.278481 L121.857802,43.257384 L120.836906,43.443038 L121.022524,44.464135 L122.043419,44.278481 Z M120.929715,39.3586498 L120.744098,38.4303797 L119.90882,38.6160338 L120.094437,39.5443038 L120.929715,39.3586498 Z M133.551696,95.1476793 L133.366079,94.4978903 L132.716418,94.6835443 L132.902035,95.3333333 L133.551696,95.1476793 Z M126.127001,56.4388186 L126.498236,55.6962025 L126.312619,55.0464135 L125.477341,55.2320675 L125.755767,56.6244726 L126.127001,56.6244726 L126.127001,56.4388186 Z M125.570149,51.4261603 L125.291723,50.2194093 L124.642062,50.4050633 L124.920488,51.6118143 L125.570149,51.4261603 Z M124.549254,46.3206751 L124.363636,45.2995781 L123.713976,45.2995781 C123.713976,45.3924051 123.899593,46.5063291 123.899593,46.5063291 L124.549254,46.5063291 L124.549254,46.3206751 Z M123.528358,41.3080169 L123.342741,40.4725738 L122.785889,40.4725738 C122.785889,40.5654008 122.971506,41.4008439 122.971506,41.4008439 L123.528358,41.4008439 L123.528358,41.3080169 Z M122.507463,36.3881857 L122.321845,35.7383966 L121.950611,35.7383966 C121.950611,35.7383966 122.136228,36.4810127 122.136228,36.4810127 L122.507463,36.4810127 L122.507463,36.3881857 Z M162.693623,58.9451477 L155.176119,22.278481 L153.412754,22.649789 L153.04152,20.8860759 L154.804885,20.5147679 L154.155224,17.4514768 L152.29905,17.8227848 L151.835007,15.7805907 L153.69118,15.4092827 L153.134328,12.8101266 L152.948711,12.8101266 C152.948711,12.7172996 151.092537,13.0886076 151.092537,13.0886076 L150.721303,11.2320675 L149.978833,10.7679325 L148.122659,11.1392405 L147.751425,9.28270042 L147.008955,8.8185654 L145.24559,9.18987342 L144.874355,7.42616034 L144.131886,6.96202532 L142.275712,7.33333333 L141.904478,5.47679325 L141.162008,5.01265823 L139.955495,5.29113924 L140.512347,8.07594937 L142.090095,7.79746835 L142.46133,9.83966245 L140.883582,10.1181435 L141.533243,13.1814346 L143.018182,12.9029536 L143.389417,14.6666667 L141.904478,14.9451477 L142.554138,18.1940928 L143.85346,17.9156118 L144.131886,19.4008439 L142.832564,19.6793249 L143.575034,23.2995781 L144.781547,23.021097 L145.059973,24.2278481 L143.85346,24.5063291 L151.370963,61.4514768 L162.600814,59.1308017 L162.693623,58.9451477 Z M170.303935,96.1687764 L168.818996,96.4472574 L168.54057,94.8691983 L170.025509,94.5907173 L169.468657,91.7130802 L167.705292,91.9915612 L167.334057,90.1350211 L166.591588,89.6708861 L164.735414,90.0421941 L164.364179,88.185654 L163.62171,87.721519 L161.858345,88.092827 L161.48711,86.3291139 L160.74464,85.8649789 L158.888467,86.2362869 L158.517232,84.3797468 L157.774763,83.9156118 L156.289824,84.1940928 L156.939484,87.257384 L158.424423,86.978903 L158.702849,88.464135 L157.21791,88.742616 L159.259701,98.9535865 L172.809769,107.864979 L170.489552,96.2616034 L170.303935,96.1687764 Z M144.781547,28.1265823 L145.709634,27.9409283 L145.895251,28.8691983 L144.967164,29.0548523 L144.781547,28.1265823 Z M145.98806,33.1392405 L146.63772,32.9535865 L146.823338,33.6033755 L146.173677,33.7890295 L145.98806,33.1392405 Z M158.145997,92.2700422 L158.981275,92.0843882 L159.166893,92.9198312 L158.331615,93.1054852 L158.145997,92.2700422 Z M143.110991,10.0253165 L145.152782,9.56118143 L145.524016,11.6033755 L143.482225,12.0675105 L143.110991,10.0253165 Z M144.317503,15.0379747 L146.080868,14.6666667 L146.452103,16.4303797 L144.688738,16.8016878 L144.317503,15.0379747 Z M145.431208,20.0506329 L146.916147,19.7721519 L147.194573,21.257384 L145.709634,21.535865 L145.431208,20.0506329 Z M146.63772,25.0632911 L147.844233,24.7848101 L148.122659,25.9915612 L146.916147,26.2700422 L146.63772,25.0632911 Z M159.630936,89.021097 L161.208684,88.742616 L161.48711,90.3206751 L159.909362,90.5991561 L159.630936,89.021097 Z M147.751425,30.0759494 L148.679512,29.8902954 L148.865129,30.8185654 L147.937042,31.0042194 L147.751425,30.0759494 Z M148.957938,35.0886076 L149.607598,34.9029536 L149.793216,35.5527426 L149.143555,35.7383966 L148.957938,35.0886076 Z M161.115875,94.2194093 L161.858345,94.0337553 L162.043962,94.7763713 L161.301493,94.9620253 L161.115875,94.2194093 Z M146.080868,11.9746835 L148.122659,11.6033755 L148.586703,13.6455696 L146.544912,14.0168776 L146.080868,11.9746835 Z M147.287381,16.8945148 L149.050746,16.5232068 L149.421981,18.2869198 L147.658616,18.6582278 L147.287381,16.8945148 Z M148.401085,22 L149.886024,21.721519 L150.16445,23.2067511 L148.679512,23.4852321 L148.401085,22 Z M149.607598,27.0126582 L150.814111,26.7341772 L151.092537,27.9409283 L149.886024,28.2194093 L149.607598,27.0126582 Z M162.600814,90.9704641 L164.085753,90.6919831 L164.364179,92.1772152 L162.87924,92.4556962 L162.600814,90.9704641 Z M150.721303,32.0253165 L151.649389,31.8396624 L151.835007,32.7679325 L150.90692,32.9535865 L150.721303,32.0253165 Z M151.835007,37.0379747 L152.484668,36.8523207 L152.670285,37.5021097 L152.020624,37.6877637 L151.835007,37.0379747 Z M164.085753,96.2616034 L164.921031,96.0759494 L165.106649,96.8185654 L164.27137,97.0042194 L164.085753,96.2616034 Z M149.050746,13.9240506 L151.092537,13.4599156 L151.463772,15.5021097 L149.421981,15.9662447 L149.050746,13.9240506 Z M150.16445,18.9367089 L151.927815,18.5654008 L152.29905,20.3291139 L150.535685,20.7004219 L150.16445,18.9367089 Z M151.370963,23.9493671 L152.855902,23.6708861 L153.134328,25.1561181 L151.649389,25.4345992 L151.370963,23.9493671 Z M152.484668,28.9620253 L153.69118,28.6835443 L153.969607,29.8902954 L152.763094,30.1687764 L152.484668,28.9620253 Z M165.663501,92.9198312 L167.14844,92.6413502 L167.426866,94.1265823 L165.941927,94.4050633 L165.663501,92.9198312 Z M153.69118,34.0675105 L154.619267,33.8818565 L154.804885,34.8101266 L153.876798,34.9957806 L153.69118,34.0675105 Z M154.804885,38.9873418 L155.454545,38.8016878 L155.640163,39.4514768 L154.990502,39.6371308 L154.804885,38.9873418 Z M167.055631,98.1181435 L167.7981,97.9324895 L167.983718,98.7679325 L167.241248,98.9535865 L167.055631,98.1181435 Z M154.340841,25.8987342 L155.82578,25.6202532 L156.104206,27.1054852 L154.619267,27.3839662 L154.340841,25.8987342 Z M155.454545,30.9113924 L156.661058,30.6329114 L156.939484,31.8396624 L155.732972,32.1181435 L155.454545,30.9113924 Z M156.661058,35.9240506 L157.589145,35.7383966 L157.774763,36.6666667 L156.846676,36.8523207 L156.661058,35.9240506 Z M157.867571,41.0295359 L158.517232,40.8438819 L158.702849,41.4936709 L158.053189,41.6793249 L157.867571,41.0295359 Z M170.025509,100.067511 L170.767978,99.8818565 L170.953596,100.624473 L170.211126,100.810127 L170.025509,100.067511 L170.025509,100.067511 Z M181.626594,71.1983122 L168.076526,62.2869198 L171.510448,78.9029536 L185.060516,87.814346 L181.626594,71.1983122 Z" id="Shape" fill="#191D3A"/>
                        </g>
                    </g>
                </g>
            </g>
        </g>
    </g>
</svg>